<svg width="421" height="422" viewBox="0 0 421 422" fill="none" xmlns="http://www.w3.org/2000/svg">
<g clip-path="url(#clip0_564_1214)">
<path d="M122.647 173.344L330.17 89.4993L414.658 298.614L207.135 382.459L122.647 173.344Z" fill="#497718"/>
<path d="M122.647 173.344L207.139 382.468L90.3258 332.363L5.83777 123.248L213.369 39.3997L330.162 89.5027L122.647 173.344Z" fill="#FF9914"/>
<path d="M333.62 86.0997L420.496 301.126L207.107 387.341L86.8797 335.771L2.67126e-05 120.736L213.389 34.5217L333.62 86.0997ZM198.904 374.049L187.57 345.995L174.284 340.296L166.026 336.746L115.872 315.216L107.605 311.67L82.4475 300.877L93.7819 328.931L198.904 374.049ZM111.102 303.411L119.314 306.969L169.508 328.474L177.762 332.015L182.793 334.173L170.662 304.146L157.376 298.447L149.118 294.897L98.9739 273.393L90.7078 269.847L65.5499 259.054L77.6815 289.081L111.102 303.411ZM94.2045 261.588L102.416 265.146L152.564 286.659L160.818 290.2L165.85 292.359L153.718 262.332L140.432 256.633L132.175 253.083L82.0303 231.578L73.7641 228.032L48.6062 217.24L60.7378 247.267L94.2045 261.588ZM77.3068 219.765L85.5185 223.323L135.666 244.836L143.921 248.377L148.952 250.536L136.821 220.509L123.535 214.81L115.277 211.26L65.1326 189.755L56.8665 186.209L31.7086 175.417L43.8402 205.444L77.3068 219.765ZM60.4092 177.942L68.6209 181.5L118.769 203.013L127.023 206.554L132.055 208.713L119.923 178.686L106.637 172.986L98.3796 169.437L48.2811 147.924L40.0149 144.378L14.8571 133.585L26.9887 163.612L60.4092 177.942ZM43.5116 136.119L51.7232 139.677L101.917 161.182L110.171 164.723L120.75 169.261L150.548 157.221L148.236 156.229L139.97 152.683L89.7857 131.155L81.528 127.605L45.4003 112.163L15.6021 124.203L43.5116 136.119ZM85.0162 119.35L93.2704 122.891L143.422 144.413L151.676 147.954L162.254 152.492L192.053 140.452L189.74 139.461L181.474 135.914L131.29 114.386L123.024 110.84L86.9049 95.3945L57.1068 107.434L85.0162 119.35ZM126.521 102.581L134.775 106.122L184.926 127.644L193.181 131.185L203.759 135.723L233.557 123.683L231.245 122.692L222.987 119.142L172.795 97.6169L164.529 94.0708L128.41 78.6256L98.6113 90.6648L126.521 102.581ZM168.025 85.8121L176.28 89.3531L226.431 110.875L234.639 114.424L245.218 118.962L275.016 106.923L272.704 105.931L264.446 102.382L214.299 80.8479L206.042 77.2984L169.914 61.8566L140.116 73.8959L168.025 85.8121ZM209.53 69.0431L217.742 72.6013L267.936 94.1058L276.19 97.6468L286.768 102.185L316.566 90.1455L314.254 89.1537L305.997 85.6041L255.804 64.079L247.546 60.5294L211.419 45.0877L181.621 57.1269L209.53 69.0431ZM327.707 95.3645L128.485 175.855L209.593 376.606L408.815 296.115L327.707 95.3645Z" fill="#231B3B"/>
</g>
<defs>
<clipPath id="clip0_564_1214">
<rect width="322.302" height="324.775" fill="white" transform="matrix(-0.927184 0.374607 0.374607 0.927184 298.833 0)"/>
</clipPath>
</defs>
</svg>
