<svg width="707" height="739" viewBox="0 0 707 739" fill="none" xmlns="http://www.w3.org/2000/svg">
<path d="M348.222 730.248L151.329 381.913L195.162 142.04L411.744 525.207L348.222 730.248Z" fill="#FF9914"/>
<path d="M348.222 730.248L411.744 525.208L575.195 391.15L511.673 596.19L348.222 730.248Z" fill="#FAFAFA"/>
<path d="M358.613 7.98188L575.195 391.149L411.744 525.207L195.162 142.04L358.613 7.98188Z" fill="#497718"/>
<path d="M363.385 4.06797L580.916 388.913L580.189 391.258L516.727 596.249L515.904 598.655L345.742 738.217L145.787 384.466L190.477 139.929L361.086 -5.13512e-05L363.385 4.06797ZM356.148 15.9392L202.227 142.181L414.203 517.2L568.124 390.958L356.148 15.9392ZM565.996 404.648L416.012 527.661L357.428 716.762L507.412 593.749L565.996 404.648ZM347.439 716.544L406.023 527.443L197.281 158.145L156.855 379.371L347.439 716.544Z" fill="#121113"/>
</svg>
