<svg width="465" height="463" viewBox="0 0 465 463" fill="none" xmlns="http://www.w3.org/2000/svg">
<g clip-path="url(#clip0_564_1219)">
<path d="M433.28 285.901L78.7176 91.6525L157.124 365.088L433.28 285.901Z" fill="#497718"/>
<path d="M157.124 365.088L78.7175 91.6525L29.2801 179.808L107.686 453.243L383.843 374.057L433.28 285.901L157.124 365.088Z" fill="#FF9914"/>
<path d="M21.5626 178.961L102.741 462.062L388.66 380.077L443.043 283.102L75.9457 81.9859L21.5626 178.961ZM76.5849 110.176L149.458 364.316L109.915 434.842L37.0416 180.703L76.5849 110.176ZM90.389 106.218L414.652 283.852L162.063 356.281L90.389 106.218ZM122.43 441.675L161.933 371.08L418.601 297.481L379.048 368.011L122.43 441.675Z" fill="#231B3B"/>
</g>
<defs>
<clipPath id="clip0_564_1219">
<rect width="372.739" height="376.448" fill="white" transform="translate(361.865) rotate(74)"/>
</clipPath>
</defs>
</svg>
