<svg width="505" height="499" viewBox="0 0 505 499" fill="none" xmlns="http://www.w3.org/2000/svg">
<g clip-path="url(#clip0_564_1224)">
<path d="M331.834 43.6722L261.287 39.9755L6.55812 269.335L173.68 454.943L244.218 458.647L77.0964 273.039L331.834 43.6722Z" fill="#497718"/>
<path d="M432.107 155.037L331.834 43.6721L77.0963 273.039L244.218 458.647L355.56 358.394L288.711 284.151L432.107 155.037Z" fill="#FF9914"/>
<path d="M295.226 284.534L438.581 155.457L333.954 39.2573L259.504 35.3478L0.00675004 269L171.52 459.484L245.971 463.394L362.113 358.819L295.226 284.534ZM348.975 358.089L244.568 452.098L83.646 273.376L331.483 50.2227L425.556 154.702L282.201 283.779L348.975 358.089ZM90.722 295.096L112.985 319.821L105.318 319.419L96.0588 318.941L55.5386 316.813L33.2757 292.087L64.5375 293.721L73.7959 294.215L90.722 295.096ZM95.575 328.192L104.833 328.686L121.76 329.567L144.022 354.292L136.356 353.889L127.096 353.411L86.5761 351.283L64.3132 326.558L95.575 328.192ZM126.612 362.662L135.871 363.156L152.797 364.037L175.06 388.763L167.393 388.36L158.134 387.882L117.614 385.754L95.3506 361.028L126.612 362.662ZM157.65 397.133L166.908 397.627L183.834 398.508L206.097 423.233L198.438 422.839L189.171 422.352L148.651 420.225L126.388 395.499L157.65 397.133ZM92.349 253.056L43.2432 250.478L34.911 250.04L59.6313 227.782L67.9552 228.227L77.2219 228.713L117.061 230.805L92.349 253.056ZM126.812 222.025L77.7066 219.447L69.3744 219.009L94.0948 196.751L102.427 197.188L111.694 197.675L151.533 199.767L126.812 222.025ZM161.276 190.994L112.17 188.416L103.838 187.978L128.558 165.72L136.89 166.157L146.157 166.644L185.996 168.736L161.276 190.994ZM195.739 159.963L146.633 157.385L138.301 156.947L163.022 134.689L171.354 135.126L180.621 135.613L220.46 137.705L195.739 159.963ZM230.203 128.932L181.097 126.354L172.765 125.916L197.485 103.658L205.817 104.095L215.084 104.582L254.923 106.674L230.203 128.932ZM264.666 97.9012L215.56 95.3225L207.228 94.885L231.948 72.6267L240.281 73.0642L249.547 73.5508L289.387 75.6429L264.666 97.9012ZM320.399 47.7187L299.13 66.8701L250.024 64.2915L241.692 63.8539L262.961 44.7025L320.399 47.7187ZM25.1679 258.813L33.5 259.25L42.7585 259.744L82.6059 261.829L70.5458 272.688L81.9475 285.351L74.2806 284.948L64.9989 284.445L24.5011 282.342L13.0994 269.679L25.1679 258.813ZM157.426 429.97L188.695 431.612L197.946 432.097L214.872 432.978L233.284 453.427L175.838 450.419L157.426 429.97Z" fill="#231B3B"/>
</g>
<defs>
<clipPath id="clip0_564_1224">
<rect width="309" height="402" fill="white" transform="translate(298.744) rotate(48)"/>
</clipPath>
</defs>
</svg>
