<svg width="53" height="160" viewBox="0 0 53 160" fill="none" xmlns="http://www.w3.org/2000/svg">
<g clip-path="url(#clip0_564_1073)">
<path d="M32.281 150.692C31.4054 150.692 30.6955 149.982 30.6955 149.107L30.2923 46.7866C30.2908 46.4438 30.0128 46.1668 29.67 46.1668H24.8363C24.6715 46.166 24.5132 46.231 24.3965 46.3475C24.2797 46.4637 24.214 46.6218 24.214 46.7866L23.8108 149.109C23.8093 149.984 23.1004 150.693 22.2253 150.695C19.9142 150.697 18.0414 152.57 18.0387 154.881V155.583C18.0399 156.796 19.0231 157.779 20.2365 157.781H34.2698C35.483 157.779 36.4661 156.796 36.4676 155.583V154.881C36.4661 152.569 34.5931 150.695 32.281 150.692Z" fill="#A3B6B7"/>
<path d="M27.2532 51.5879C41.1868 51.5879 52.4822 40.2925 52.4822 26.3589C52.4822 12.4253 41.1868 1.12982 27.2532 1.12982C13.3195 1.12982 2.02411 12.4253 2.02411 26.3589C2.02411 40.2925 13.3195 51.5879 27.2532 51.5879Z" fill="#FF9914"/>
<path d="M42.9267 23.9569C42.932 23.4432 42.7301 22.9491 42.3667 22.586C42.0033 22.2231 41.5087 22.022 40.9952 22.0279C32.2388 22.135 17.8022 22.1151 13.5883 22.1051C12.5526 22.0994 11.7043 22.9265 11.6841 23.9619C11.6617 24.7236 11.6443 25.5549 11.6244 26.3863C11.607 27.1728 11.5895 27.9594 11.5696 28.6886C11.5554 29.2031 11.7501 29.7012 12.1093 30.0698C12.4684 30.4385 12.9615 30.6458 13.4762 30.645H13.5534C22.3149 30.2841 36.7987 30.324 41.0276 30.3464C41.5393 30.3498 42.0312 30.1467 42.3918 29.7833C42.7523 29.4199 42.9514 28.9268 42.9442 28.4148C42.9243 27.138 42.9118 25.3284 42.9267 23.9569Z" fill="#FAFAFA"/>
<path d="M44.6987 158.027H9.80714C9.46365 158.027 9.18488 157.749 9.18488 157.405C9.18488 157.061 9.46365 156.783 9.80714 156.783H44.6987C45.0424 156.783 45.321 157.061 45.321 157.405C45.321 157.749 45.0424 158.027 44.6987 158.027Z" fill="#1B1812"/>
</g>
<defs>
<clipPath id="clip0_564_1073">
<rect width="52.4195" height="159.349" fill="white" transform="translate(0.391296 0.199829)"/>
</clipPath>
</defs>
</svg>
