<svg width="54" height="160" viewBox="0 0 54 160" fill="none" xmlns="http://www.w3.org/2000/svg">
<path d="M32.8621 150.492C31.9865 150.492 31.2766 149.782 31.2766 148.907L30.8734 46.5867C30.8719 46.244 30.5939 45.967 30.2511 45.967H25.4174C25.2526 45.9662 25.0943 46.0312 24.9776 46.1477C24.8608 46.2639 24.7951 46.422 24.7951 46.5867L24.3919 148.909C24.3904 149.784 23.6815 150.493 22.8063 150.495C20.4953 150.498 18.6225 152.37 18.6198 154.681V155.383C18.621 156.596 19.6042 157.58 20.8176 157.581H34.8509C36.064 157.58 37.0472 156.596 37.0487 155.383V154.681C37.0472 152.369 35.1742 150.495 32.8621 150.492Z" fill="#A3B6B7"/>
<path d="M27.8342 45.8328C38.7986 45.8328 47.6869 36.9444 47.6869 25.9801C47.6869 15.0157 38.7986 6.12738 27.8342 6.12738C16.8699 6.12738 7.98154 15.0157 7.98154 25.9801C7.98154 36.9444 16.8699 45.8328 27.8342 45.8328Z" fill="#FAFAFA"/>
<path fill-rule="evenodd" clip-rule="evenodd" d="M32.21 11.9095C34.0693 12.3475 35.7644 13.6916 36.8596 15.5833C38.0742 17.6766 37.9871 20.2752 36.648 22.0474C35.3512 23.7549 33.3799 24.295 31.6176 24.5987C29.5261 24.9568 27.4099 25.1525 25.2879 25.1836L25.039 39.4509C25.0186 40.6735 24.0218 41.6539 22.7989 41.6537H22.7491C21.5168 41.6265 20.5378 40.6088 20.5587 39.3762L20.9968 13.8509C21.018 12.6495 21.9832 11.6785 23.1847 11.6506C23.7945 11.6357 24.4218 11.6033 25.0863 11.5685L25.0983 11.568C27.3944 11.4485 29.7625 11.3255 32.21 11.9095ZM25.4398 16.0363L25.3601 20.7058C27.1993 20.6702 29.033 20.4965 30.846 20.1856C30.8754 20.1801 30.9077 20.1739 30.9426 20.1674C31.4949 20.0639 32.6869 19.8406 33.0637 19.3443C33.2803 19.073 33.3077 18.4009 32.9766 17.8284C32.5087 17.0145 31.8142 16.4246 31.1646 16.2678C29.3824 15.8422 27.3812 15.9368 25.4398 16.0363Z" fill="#1B1812"/>
<path fill-rule="evenodd" clip-rule="evenodd" d="M27.8342 0.929993C14.0008 0.935469 2.79061 12.1531 2.79434 25.9866C2.79783 39.82 14.014 51.0317 27.8474 51.0297C41.6808 51.0279 52.894 39.8133 52.894 25.9798C52.8789 12.1477 41.6664 0.9397 27.8342 0.929993ZM7.98154 25.9798C7.97806 21.5319 9.47697 17.2131 12.2353 13.7237L40.0903 41.5887C34.1189 46.2898 25.9864 47.1662 19.1507 43.8453C12.3147 40.5241 7.97706 33.5899 7.98154 25.9898V25.9798ZM15.5781 10.3784L43.4356 38.2335C49.6565 30.3384 48.9885 19.0381 41.8807 11.9311C34.773 4.82387 23.4727 4.1568 15.5781 10.3784Z" fill="#FF9914"/>
<path d="M45.2798 157.828H10.3882C10.0447 157.828 9.76593 157.549 9.76593 157.205C9.76593 156.862 10.0447 156.583 10.3882 156.583H45.2798C45.6235 156.583 45.902 156.862 45.902 157.205C45.902 157.549 45.6235 157.828 45.2798 157.828Z" fill="#1B1812"/>
</svg>
